<svg xmlns="http://www.w3.org/2000/svg" viewBox="0 0 64 64" id="waffle"><path d="M59.18945,24.51855a3.61351,3.61351,0,0,0-3.28228-.98693,25.14239,25.14239,0,0,0-3.64612-6.78724,3.61334,3.61334,0,0,0-5.00513-5.00549,25.14826,25.14826,0,0,0-6.791-3.64715,3.60435,3.60435,0,0,0-.98352-3.28119,3.69511,3.69511,0,0,0-5.10938,0L32,7.18262,29.62793,4.81055a3.69511,3.69511,0,0,0-5.10938,0A3.61276,3.61276,0,0,0,23.5318,8.0929a25.14759,25.14759,0,0,0-6.78772,3.646A3.61334,3.61334,0,0,0,11.739,16.74438,25.14479,25.14479,0,0,0,8.0918,23.53467a3.61235,3.61235,0,0,0-3.28125,6.09326L7.18262,32,4.81006,34.37207A3.63175,3.63175,0,0,0,8.093,40.46818a25.13965,25.13965,0,0,0,3.646,6.78744A3.61329,3.61329,0,0,0,16.744,52.26105a25.14686,25.14686,0,0,0,6.791,3.64721,3.63166,3.63166,0,0,0,6.093,3.28108L32,56.81738l2.37207,2.37207A3.61488,3.61488,0,0,0,40.4682,55.9071,25.14723,25.14723,0,0,0,47.256,52.26105a3.61329,3.61329,0,0,0,5.00507-5.00543,25.14284,25.14284,0,0,0,3.64709-6.79,3.6126,3.6126,0,0,0,3.28131-6.09357L56.81738,32l2.37256-2.37207A3.61823,3.61823,0,0,0,59.18945,24.51855Zm-5.10937,0-2.37256,2.37208-4.74414-4.74415,3.93121-3.93158A19.3243,19.3243,0,0,1,54.08008,24.51855ZM41.854,17.03711,37.10938,12.292l2.37207-2.37207a19.33055,19.33055,0,0,1,6.30376,3.18541ZM24.4585,9.8584q.02929.03076.06005.06152L26.89063,12.292,22.146,17.03711l-3.93116-3.93164A23.14549,23.14549,0,0,1,24.4585,9.8584ZM13.10541,18.2149l3.93121,3.93158-4.74414,4.74415L9.91992,24.51855A19.328,19.328,0,0,1,13.10541,18.2149ZM9.91992,39.48145l2.37256-2.37207,4.74414,4.74414L13.10541,45.7851A19.3243,19.3243,0,0,1,9.91992,39.48145ZM22.146,46.96289,26.89063,51.708l-2.37208,2.37207a19.33055,19.33055,0,0,1-6.30376-3.18541ZM39.5415,54.1416q-.02929-.03076-.06-.06152L37.10938,51.708,41.854,46.96289l3.93116,3.93164A23.14549,23.14549,0,0,1,39.5415,54.1416Zm11.35309-8.3565-3.93121-3.93158,4.74414-4.74414,2.37256,2.37207A19.328,19.328,0,0,1,50.89459,45.7851Zm6.8808-17.57123L54.6958,31.293a.99963.99963,0,0,0,0,1.41406l3.07959,3.0791a1.61475,1.61475,0,0,1-1.98493,2.51166,1.33493,1.33493,0,0,1-.29632-.23041l-3.07959-3.0791a.99964.99964,0,0,0-1.41406,0l-6.1582,6.1582a.99964.99964,0,0,0,0,1.41407l5.44384,5.44433a1.62729,1.62729,0,0,1,.03444,2.44068,1.65362,1.65362,0,0,1-2.31683-.16112c-.07006-.07-2.39436-2.39429-3.98258-3.98252-1.38252-1.26877-1.72288-2.27159-2.876-1.45829-.17692.17394-6.14843,6.14725-6.2035,6.20725A1.02,1.02,0,0,0,34.99,52.41676c.108.08934,2.39451,2.40527,3.119,3.12031a1.61383,1.61383,0,0,1-2.32463,2.23653c-.05125-.05122-1.24054-1.2405-2.12528-2.12525-1.01182-.96908-1.35854-1.699-2.36786-.95032l-2.29777,2.29776c-.51828.50141-.71976.735-.84022.83682a1.61658,1.61658,0,0,1-2.4224-2.09035c.12091-.18873,3.12357-3.16759,3.32761-3.37717a1.029,1.029,0,0,0-.04864-1.366c-.16986-.16654-6.15515-6.16217-6.205-6.20213a1.0593,1.0593,0,0,0-1.36748.04648c-.10681.107-5.44385,5.44312-5.44362,5.444a1.61667,1.61667,0,1,1-2.27337-2.289c-.03136.03076.00311-.00269-.00487.00486l3.98225-3.98261c.9533-.96,1.369-1.35258,1.54956-1.56257a1.04718,1.04718,0,0,0-.09693-1.3189c-.16408-.16416-3.06188-3.062-4.82067-4.82075-1.29254-1.20449-1.64822-2.1445-2.75107-1.32334-.17241.16732-2.43528,2.44659-3.15922,3.153A1.61421,1.61421,0,0,1,6.2315,35.7793c.10334-.10338,1.36257-1.36241,2.23654-2.23624.59644-.58549.747-.74517.91683-.92708a1.04292,1.04292,0,0,0-.08755-1.32983c-.15954-.15424-2.57284-2.56443-3.1901-3.20306a1.614,1.614,0,0,1,2.4055-2.14354c.07091.10189,2.6264,2.61551,3.17505,3.16169a1.04752,1.04752,0,0,0,1.319-.09689c.17864-.17856,3.59462-3.59454,5.257-5.257.66036-.65046.77623-.77122.98342-.99627a1.05068,1.05068,0,0,0-.09608-1.31813c-.21516-.21578-5.45407-5.45425-5.44358-5.44414a2.10479,2.10479,0,0,1-.26218-.29209,1.61787,1.61787,0,0,1,2.5636-1.96839c.21231.2122,2.72193,2.72182,4.254,4.25386.85906.84625,1.01742,1.04817,1.31578,1.29242a1.05414,1.05414,0,0,0,1.29054-.13281c.29421-.34317,4.96154-4.89238,6.27062-6.29965a1.05727,1.05727,0,0,0-.14347-1.27241c-.51974-.58491-3.35757-3.17417-3.42262-3.616a1.61931,1.61931,0,0,1,2.65522-1.71392c.15622.15614,1.48392,1.48384,2.33954,2.33946a10.10231,10.10231,0,0,0,.88124.85259,1.05579,1.05579,0,0,0,1.27238-.14349c.1529-.15283,1.428-1.42789,2.28431-2.28424.64438-.60732.61545-.66753.9793-.94936a1.61423,1.61423,0,0,1,2.06623,2.46623c-.15609.1562-1.48379,1.4839-2.33941,2.33952a12.02735,12.02735,0,0,0-.85256.88128,1.06336,1.06336,0,0,0,.14457,1.27344c.25525.15606,5.07786,5.17811,6.2821,6.25923a1.05507,1.05507,0,0,0,1.28865-.13082c.3154-.31534,5.44633-5.44569,5.43706-5.43739a2.08885,2.08885,0,0,1,.29077-.26092,1.61851,1.61851,0,0,1,1.95737,2.57509c-.26331.26346-2.51451,2.51487-4.03109,4.03158-1.17577,1.30741-2.26268,1.6815-1.35859,2.83022.54785.52839,4.76106,4.832,6.34264,6.29227a1.06257,1.06257,0,0,0,1.22767-.18965c.3875-.37513,2.837-2.86941,3.22915-3.20449A1.6155,1.6155,0,0,1,57.77539,28.21387Z"></path><path d="M29.30469 32a.99928.99928 0 00-.293-.707L22.853 25.13477a.99964.99964 0 00-1.41407 0L15.28027 31.293a1.00561 1.00561 0 000 1.41406l6.15867 6.1582a.99964.99964 0 001.41407 0l6.15869-6.1582A.99927.99927 0 0029.30469 32zM22.146 36.74414L17.40137 32 22.146 27.25586 26.89063 32zM32.707 34.98828a.99964.99964 0 00-1.41406 0l-6.15869 6.1582a1.00562 1.00562 0 000 1.41407L31.293 48.71973a1.00562 1.00562 0 001.41406 0l6.15869-6.15916a.99964.99964 0 000-1.41407zM32 46.59863l-4.74463-4.74511L32 37.10938l4.74463 4.74414zM31.293 29.01172a.99964.99964 0 001.41406 0l6.15869-6.1582a1.00562 1.00562 0 000-1.41407L32.707 15.28027a1.02932 1.02932 0 00-1.41406 0l-6.15869 6.15918a.99964.99964 0 000 1.41407zM32 17.40137l4.74463 4.74511L32 26.89063l-4.74463-4.74415zM42.561 25.13477a.99964.99964 0 00-1.41407 0L34.98828 31.293a1.00562 1.00562 0 000 1.41406l6.15868 6.1582a.99964.99964 0 001.41407 0l6.15869-6.1582a.99963.99963 0 000-1.41406zm-.707 11.60937L37.10938 32 41.854 27.25586 46.59863 32z"></path></svg>