<svg xmlns="http://www.w3.org/2000/svg" data-name="Layer 1" viewBox="0 0 64 64" id="chocolate-bar"><path fill="none" stroke="#222" stroke-linecap="round" stroke-linejoin="round" stroke-width="3" d="M18.5 4.3H32a0 0 0 0 1 0 0V16.09a0 0 0 0 1 0 0H15.5a0 0 0 0 1 0 0V7.3A3 3 0 0 1 18.5 4.3zM32 4.3H45.5a3 3 0 0 1 3 3v8.79a0 0 0 0 1 0 0H32a0 0 0 0 1 0 0V4.3A0 0 0 0 1 32 4.3z"></path><polygon fill="none" stroke="#222" stroke-linecap="round" stroke-linejoin="round" stroke-width="3" points="32 25.38 15.5 27.17 15.5 16.09 32 16.09 32 25.38"></polygon><polygon fill="none" stroke="#222" stroke-linecap="round" stroke-linejoin="round" stroke-width="3" points="48.5 23.58 32 25.38 32 16.09 48.5 16.09 48.5 23.58"></polygon><path fill="none" stroke="#222" stroke-linecap="round" stroke-linejoin="round" stroke-width="3" d="M49.29,23.49l-35,3.82a2,2,0,0,0-1.79,2V54.7a5,5,0,0,0,5,5h29a5,5,0,0,0,5-5V25.48A2,2,0,0,0,49.29,23.49Z"></path><path fill="none" stroke="#222" stroke-linecap="round" stroke-linejoin="round" stroke-width="3" d="M39.59,36.75a4.84,4.84,0,0,0-6.44.45L32,38.33a0,0,0,0,1,0,0L30.85,37.2a4.82,4.82,0,0,0-6.43-.45,4.68,4.68,0,0,0-.34,6.94L25.37,45l5.22,5.22a2,2,0,0,0,2.83,0L38.64,45l1.29-1.29A4.69,4.69,0,0,0,39.59,36.75Z"></path></svg>