<svg xmlns="http://www.w3.org/2000/svg" viewBox="0 0 64 64" id="candy"><path d="M61.7139,18.9258l-.3467-.1485a.4377.4377,0,0,1-.16-.1162.4613.4613,0,0,1-.1045-.3232.41.41,0,0,1,.1514-.2959,2.4561,2.4561,0,0,0,.5-3.15l-2.23-3.5537a2.4152,2.4152,0,0,0-2.1953-1.1465l-1.293.0723a.4513.4513,0,0,1-.3769-.1856.41.41,0,0,1-.043-.4121l.3076-.7158a2.4408,2.4408,0,0,0-.3759-2.5342l-1.8311-2.17a2.3972,2.3972,0,0,0-2.06-.8565,8.226,8.226,0,0,0-5.8554,2.8926A10.5926,10.5926,0,0,0,43.8,12.9006a12.4366,12.4366,0,0,0-13.99,1.3728l-6.754,5.698-.0036.0031-7.758,6.545c-.0725.0612-.1369.129-.2077.1916-.0127.0105-.0234.0217-.0354.0327a12.43,12.43,0,0,0-3.4663,13.3313,10.6041,10.6041,0,0,0-6.86.8624,8.2345,8.2345,0,0,0-3.84,5.292,2.4092,2.4092,0,0,0,.4991,2.167l1.831,2.17a2.4319,2.4319,0,0,0,2.4287.7979l.7627-.1846a.4119.4119,0,0,1,.4.1123.42.42,0,0,1,.1192.4023l-.2891,1.2618a2.42,2.42,0,0,0,.7568,2.3554l3.1368,2.8047a2.4555,2.4555,0,0,0,3.1855.0313.3841.3841,0,0,1,.3154-.0977.4559.4559,0,0,1,.3018.1592.4121.4121,0,0,1,.0859.1728l.09.3711a2.4505,2.4505,0,0,0,2.375,1.8662,2.3834,2.3834,0,0,0,.5283-.0586,7.6475,7.6475,0,0,0,6.0715-7.292,12.4378,12.4378,0,0,0,12.6931-1.996L50.6934,39.0264A12.44,12.44,0,0,0,54.7908,26.85c.3141.026.6269.05.9192.05a7.5584,7.5584,0,0,0,7.3-4.8106A2.4465,2.4465,0,0,0,61.7139,18.9258ZM16.9717,58.61a.4392.4392,0,0,1-.5186-.3282l-.0888-.3691a2.4351,2.4351,0,0,0-2.1221-1.8526c-.0869-.0087-.1738-.0136-.26-.0136a2.3969,2.3969,0,0,0-1.5556.5722.44.44,0,0,1-.5684.002L8.7236,53.8184a.4229.4229,0,0,1-.1367-.4141l.2891-1.2637a2.431,2.431,0,0,0-2.9385-2.9043l-.7705.1866a.4365.4365,0,0,1-.4219-.1456l-1.831-2.17a.4036.4036,0,0,1-.0967-.3564,6.3086,6.3086,0,0,1,2.8857-4.0694c2.2373-1.2539,5.169-.8046,6.9365-.34.0907.151.1927.2946.29.4416.0675.1026.1313.2071.2017.3076.2157.3082.4415.6085.6827.8944l4.8984,5.8056c.221.262.4537.5119.694.7534.0768.0772.1584.1488.2372.2238.1676.16.3369.3175.513.4676.1.0848.203.1652.3053.2469.1644.1313.3308.26.502.3827.112.0805.2257.1583.3406.2352.0805.0539.1571.113.239.165C21.5059,56.6367,19.06,58.1328,16.9717,58.61Zm3.27-10.1084-4.8984-5.8057q-.3311-.3918-.6242-.8174c-.1948-.2826-.3759-.5748-.5418-.874a10.4265,10.4265,0,0,1,1.0983-11.6306l6.5992,20.6735A10.4064,10.4064,0,0,1,20.2412,48.502Zm4.195,2.9922-7.5621-23.69,6.3328-5.3427L32.4075,51.287A10.4491,10.4491,0,0,1,24.4362,51.4942Zm10.4525-1.751c-.2271.1915-.4621.37-.7018.539L24.8615,21.0656,31.1,15.8027c.03-.0254.0627-.0465.0931-.0716L40.532,44.9822Zm7.2963-6.1556L32.9235,14.58a10.33,10.33,0,0,1,7.7774-.8071l7.8145,24.4736ZM50.15,36.7938,43.137,14.8312a10.2928,10.2928,0,0,1,1.1374.7762,10.6167,10.6167,0,0,1,1.4727,1.4365L50.6455,22.85a10.4555,10.4555,0,0,1,.75,1.0226q.2333.3567.4373.7308A10.282,10.282,0,0,1,50.15,36.7938ZM61.1611,21.3252c-.8232,1.9805-2.7177,4.1387-7.0244,3.4414-.0392-.0934-.0865-.1825-.1278-.2747-.0538-.12-.1086-.2387-.1659-.3565-.0947-.1942-.1957-.3846-.3-.5733-.0616-.1114-.1217-.2234-.1867-.3328-.1191-.2-.2469-.3953-.3771-.5887-.06-.0895-.1165-.1813-.1791-.2693-.1976-.2775-.4045-.5489-.6253-.8108l-4.8984-5.8056c-.2437-.2884-.503-.563-.7711-.8285-.0847-.0838-.1741-.1619-.2612-.2432-.13-.1217-.2557-.2481-.3906-.3639-.1611-1.8193-.11-4.7832,1.5029-6.78a6.3092,6.3092,0,0,1,4.49-2.1582.4184.4184,0,0,1,.3408.1543l1.8311,2.17a.4292.4292,0,0,1,.07.4482l-.31.7217a2.4082,2.4082,0,0,0,.24,2.3486,2.3746,2.3746,0,0,0,2.128,1.0362l1.2949-.0723a.42.42,0,0,1,.3857.209l2.2285,3.5517a.4427.4427,0,0,1-.0927.5655,2.3985,2.3985,0,0,0-.8565,1.6963,2.4307,2.4307,0,0,0,1.4678,2.4033l.35.15A.4357.4357,0,0,1,61.1611,21.3252Z"></path></svg>